<?xml version="1.0" standalone="no"?>
<!DOCTYPE svg PUBLIC "-//W3C//DTD SVG 20010904//EN"
 "http://www.w3.org/TR/2001/REC-SVG-20010904/DTD/svg10.dtd">
<svg version="1.0" xmlns="http://www.w3.org/2000/svg"
 width="180.000000pt" height="180.000000pt" viewBox="0 0 180.000000 180.000000"
 preserveAspectRatio="xMidYMid meet">
<metadata>
Created by potrace 1.14, written by Peter Selinger 2001-2017
</metadata>
<g transform="translate(0.000000,180.000000) scale(0.100000,-0.100000)"
fill="#000000" stroke="none">
<path d="M0 1655 l0 -145 760 0 760 0 0 -755 0 -755 140 0 140 0 0 900 0 900
-900 0 -900 0 0 -145z"/>
<path d="M0 1270 l0 -140 125 0 126 0 -3 138 -3 137 -122 3 -123 3 0 -141z"/>
<path d="M357 1403 c-4 -3 -7 -66 -7 -140 l0 -133 405 0 405 0 0 -565 0 -565
130 0 130 0 -2 703 -3 702 -526 3 c-289 1 -529 -1 -532 -5z"/>
<path d="M0 510 l0 -510 125 0 125 0 0 510 0 510 -125 0 -125 0 0 -510z"/>
<path d="M357 1013 c-4 -3 -7 -233 -7 -510 l0 -503 355 0 355 0 0 510 0 510
-348 0 c-192 0 -352 -3 -355 -7z"/>
</g>
</svg>
